<?xml version="1.0" encoding="UTF-8"?>
<svg width="512" height="512" viewBox="0 0 512 512" xmlns="http://www.w3.org/2000/svg">
  <!-- Barcode lines -->
  <g fill="#FFFFFF" opacity="0.95">
    <!-- Left barcode bars -->
    <rect x="90" y="100" width="14" height="220" rx="4"/>
    <rect x="114" y="100" width="10" height="220" rx="3"/>
    <rect x="134" y="100" width="18" height="220" rx="4"/>
    <rect x="162" y="100" width="10" height="220" rx="3"/>
    <rect x="182" y="100" width="14" height="220" rx="4"/>
    <rect x="206" y="100" width="8" height="220" rx="2"/>
    
    <!-- Center barcode bars -->
    <rect x="230" y="100" width="18" height="220" rx="4"/>
    <rect x="258" y="100" width="10" height="220" rx="3"/>
    <rect x="278" y="100" width="14" height="220" rx="4"/>
    <rect x="302" y="100" width="18" height="220" rx="4"/>
    
    <!-- Right barcode bars -->
    <rect x="336" y="100" width="8" height="220" rx="2"/>
    <rect x="354" y="100" width="14" height="220" rx="4"/>
    <rect x="378" y="100" width="10" height="220" rx="3"/>
    <rect x="398" y="100" width="18" height="220" rx="4"/>
  </g>
  
  <!-- Scanner frame corners -->
  <g stroke="#00E5FF" stroke-width="10" fill="none" stroke-linecap="round">
    <!-- Top left corner -->
    <path d="M60 100 L60 45 L115 45"/>
    <!-- Top right corner -->
    <path d="M452 45 L397 45 M452 45 L452 100"/>
    <!-- Bottom left corner -->
    <path d="M60 320 L60 375 L115 375"/>
    <!-- Bottom right corner -->
    <path d="M452 375 L397 375 M452 375 L452 320"/>
  </g>
  
  <!-- Scanning line (red) -->
  <rect x="60" y="205" width="392" height="8" rx="4" fill="#FF5252"/>
  
  <!-- App name text -->
  <text x="256" y="450" font-family="Arial, sans-serif" font-size="36" font-weight="bold" fill="#FFFFFF" text-anchor="middle" opacity="0.9">INVENTORY SCANNER</text>
</svg>
